<svg width="512" height="512" viewBox="0 0 512 512" fill="none" xmlns="http://www.w3.org/2000/svg">
<rect width="512" height="512" fill="#033E8A"/>
<path d="M146.918 286H138V226H151.134L169.781 272.459L188.185 226H201.238V286H192.401L192.644 235.405L172.781 286H166.538L146.675 235.405L146.918 286Z" fill="white"/>
<g clip-path="url(#clip0_1502_9737)">
<path d="M224.927 282.359C227.406 283.697 229.509 284.535 232.244 285.221C236.469 286.173 239.744 286.236 244.006 285.501C252.429 283.664 258.11 279.94 264.192 273.971C264.192 273.971 264.378 273.786 264.378 273.778C267.086 270.7 290.141 244.391 291.19 241.485C290.614 241.056 268.454 265.191 267.54 266.167C273.947 258.723 280.479 251.101 286.424 243.28C279.905 249.903 273.497 256.992 267.138 263.781C269.185 261.261 286.186 240.204 286.052 237.44C284.589 240.256 273.883 252.555 271.761 255.058C273.117 253.253 285.104 237.708 283.943 235.603C285.213 236.157 258.792 266.857 257.853 267.944C257.765 268.041 258.156 267.633 258.031 267.759C253.483 272.397 249.029 275.606 242.64 277.159C239.661 277.746 237.37 277.783 234.397 277.181C233.345 276.952 232.426 276.679 231.421 276.299C229.298 275.404 227.708 274.443 225.873 273.055C223.604 271.277 222.131 269.646 220.62 267.195C219.222 264.778 218.478 262.744 217.976 259.999C217.544 257.218 217.584 255.034 218.116 252.271C218.75 249.398 219.632 247.312 221.232 244.84C222.916 242.393 224.52 240.762 226.951 239.049C229.363 237.449 231.423 236.546 234.233 235.848C237.086 235.219 239.352 235.115 242.252 235.479C245.269 235.941 247.49 236.712 250.157 238.195C247.641 236.498 245.315 235.595 242.349 234.889C239.37 234.3 237.002 234.263 233.994 234.714C230.952 235.256 228.699 236.084 226.019 237.624C223.247 239.318 221.388 240.995 219.39 243.556C219.156 243.866 218.933 244.177 218.714 244.498C218.908 244.162 219.109 243.834 219.319 243.507C221.15 240.753 222.909 238.908 225.583 236.958C228.256 235.123 230.548 234.077 233.682 233.245C235.295 232.852 236.709 232.64 238.367 232.539C236.722 232.486 235.233 232.613 233.601 232.862C230.315 233.445 227.874 234.357 224.971 236.024C221.975 237.859 219.967 239.681 217.809 242.455C217.746 242.538 217.684 242.622 217.623 242.705C217.674 242.615 217.726 242.525 217.78 242.435C219.645 239.346 221.48 237.254 224.302 235C227.176 232.842 229.669 231.581 233.104 230.516C236.672 229.515 239.534 229.231 243.231 229.496C246.213 229.776 248.524 230.327 251.315 231.412C248.641 230.156 246.239 229.501 243.309 229.027C239.551 228.537 236.598 228.681 232.887 229.489C229.236 230.392 226.558 231.573 223.423 233.655C222.234 234.481 221.221 235.296 220.16 236.28C221.154 235.21 222.115 234.311 223.249 233.39C226.311 231.014 228.973 229.616 232.658 228.411C236.508 227.267 239.604 226.916 243.616 227.145C247.91 227.498 251.109 228.38 255 230.227C251.31 228.079 247.983 227.026 243.752 226.314C239.627 225.773 236.391 225.923 232.318 226.805C228.307 227.79 225.367 229.08 221.92 231.359C218.449 233.799 216.152 236.133 213.75 239.628C211.471 243.156 210.214 246.146 209.323 250.247C208.576 254.19 208.531 257.306 209.17 261.264C209.912 265.163 210.99 268.051 213.016 271.465C215.192 274.896 217.313 277.21 220.564 279.646C222.009 280.693 223.343 281.536 224.927 282.359Z" fill="white"/>
<path d="M303.76 229.64C301.282 228.303 299.178 227.463 296.443 226.778C292.219 225.827 288.943 225.764 284.681 226.499C276.258 228.336 270.577 232.06 264.494 238.028C264.494 238.028 264.309 238.213 264.309 238.221C261.601 241.298 238.545 267.609 237.497 270.514C238.073 270.943 260.231 246.809 261.146 245.832C254.738 253.277 248.206 260.899 242.262 268.719C248.781 262.096 255.189 255.007 261.548 248.218C259.501 250.739 242.5 271.796 242.634 274.56C244.096 271.743 254.802 259.445 256.925 256.942C255.57 258.746 243.581 274.291 244.742 276.397C243.472 275.844 269.893 245.142 270.832 244.055C270.92 243.958 270.529 244.367 270.654 244.242C275.202 239.603 279.657 236.395 286.045 234.84C289.024 234.254 291.314 234.217 294.288 234.819C295.339 235.048 296.258 235.321 297.264 235.7C299.387 236.595 300.977 237.557 302.812 238.945C305.082 240.722 306.554 242.353 308.066 244.805C309.464 247.222 310.208 249.255 310.709 252C311.141 254.781 311.101 256.965 310.569 259.729C309.935 262.602 309.053 264.688 307.453 267.16C305.769 269.606 304.164 271.238 301.734 272.95C299.322 274.55 297.261 275.453 294.451 276.152C291.598 276.78 289.332 276.885 286.433 276.52C283.415 276.058 281.193 275.288 278.527 273.804C281.044 275.501 283.37 276.404 286.336 277.111C289.314 277.7 291.683 277.737 294.691 277.286C297.732 276.743 299.986 275.916 302.665 274.375C305.437 272.682 307.297 271.004 309.293 268.443C309.527 268.133 309.75 267.822 309.97 267.501C309.775 267.838 309.575 268.165 309.365 268.492C307.534 271.246 305.774 273.09 303.101 275.04C300.428 276.875 298.137 277.922 295.001 278.754C293.388 279.147 291.975 279.36 290.317 279.459C291.962 279.512 293.451 279.385 295.082 279.136C298.368 278.554 300.811 277.64 303.712 275.974C306.709 274.139 308.716 272.318 310.875 269.544C310.938 269.46 311 269.377 311.061 269.294C311.009 269.384 310.957 269.475 310.905 269.564C309.039 272.652 307.205 274.745 304.383 276.998C301.507 279.156 299.016 280.417 295.58 281.482C292.012 282.483 289.151 282.767 285.453 282.503C282.472 282.223 280.16 281.671 277.37 280.587C280.044 281.843 282.446 282.498 285.377 282.972C289.134 283.462 292.087 283.318 295.798 282.509C299.45 281.606 302.127 280.425 305.263 278.343C306.451 277.517 307.464 276.702 308.525 275.718C307.531 276.788 306.57 277.687 305.436 278.608C302.373 280.984 299.711 282.382 296.026 283.587C292.176 284.731 289.08 285.082 285.068 284.852C280.775 284.499 277.575 283.617 273.685 281.77C277.374 283.918 280.701 284.971 284.932 285.683C289.057 286.224 292.293 286.074 296.366 285.192C300.378 284.207 303.317 282.917 306.765 280.638C310.235 278.198 312.533 275.864 314.935 272.369C317.214 268.841 318.47 265.851 319.362 261.75C320.108 257.807 320.154 254.691 319.514 250.733C318.773 246.834 317.694 243.946 315.669 240.532C313.494 237.101 311.372 234.787 308.122 232.352C306.676 231.304 305.343 230.462 303.759 229.639" fill="#00A3FF"/>
</g>
<path d="M342.517 286L320.095 226H329.97L347.293 274.324L364.696 226H374.571L351.988 286H342.517Z" fill="white"/>
<defs>
<clipPath id="clip0_1502_9737">
<rect width="111.238" height="60" fill="white" transform="translate(208.725 226)"/>
</clipPath>
</defs>
</svg>
